<?xml version="1.0" encoding="UTF-8" standalone="no"?>
<!DOCTYPE svg PUBLIC "-//W3C//DTD SVG 1.1//EN" "http://www.w3.org/Graphics/SVG/1.1/DTD/svg11.dtd">
<svg width="100%" height="100%" viewBox="0 0 1100 95" version="1.1" xmlns="http://www.w3.org/2000/svg" xmlns:xlink="http://www.w3.org/1999/xlink" xml:space="preserve" xmlns:serif="http://www.serif.com/" style="fill-rule:evenodd;clip-rule:evenodd;stroke-linejoin:round;stroke-miterlimit:2;">
    <g transform="matrix(157.735,0,0,82.3674,-1529.2,-469.462)">
        <g id="_1" serif:id="1">
            <g>
                <path d="M13.566,5.797C13.703,5.827 13.851,5.76 13.988,5.805C14,5.808 14.05,5.792 14.072,5.781C14.177,5.716 14.26,5.729 14.33,5.794C14.345,5.807 14.373,5.815 14.402,5.809C14.444,5.798 14.402,5.788 14.398,5.777C14.386,5.748 14.439,5.75 14.476,5.75C14.605,5.753 14.739,5.744 14.854,5.782L14.855,5.782C14.898,5.827 14.818,5.819 14.765,5.826C14.568,5.853 14.367,5.874 14.156,5.86C14.212,5.86 14.269,5.86 14.316,5.876C14.379,5.901 14.436,5.892 14.515,5.886C14.675,5.875 14.848,5.885 14.988,5.933C15.048,5.954 15.044,5.991 15.015,6.021C14.98,6.058 14.927,6.041 14.877,6.027C14.867,6.024 14.864,6.04 14.85,6.044C14.803,6.064 14.748,6.07 14.687,6.07C14.447,6.044 14.196,6.044 13.959,6.011C13.841,5.995 13.764,5.959 13.733,5.911C13.705,5.866 13.642,5.841 13.566,5.819C13.556,5.811 13.556,5.804 13.566,5.797Z" style="fill:rgb(255,215,0);"/>
                <g transform="matrix(2.75408,0,0,2.24114,-17.0419,-5.80619)">
                    <path d="M11.055,5.368C11.025,5.378 10.994,5.39 10.963,5.402C10.941,5.379 10.956,5.345 10.88,5.34C10.796,5.334 10.821,5.37 10.801,5.389C10.775,5.415 10.717,5.424 10.68,5.444C10.647,5.463 10.529,5.491 10.695,5.5C10.715,5.502 10.731,5.507 10.721,5.516C10.7,5.529 10.678,5.542 10.65,5.55C10.621,5.558 10.59,5.539 10.573,5.541C10.438,5.562 10.342,5.554 10.323,5.479C10.242,5.465 10.226,5.415 10.13,5.409C10.049,5.38 9.991,5.344 9.939,5.304C10.057,5.294 10.167,5.27 10.289,5.272C10.309,5.277 10.313,5.292 10.353,5.279C10.491,5.237 10.608,5.245 10.73,5.296C10.813,5.316 10.895,5.295 10.978,5.296C10.994,5.297 11.007,5.299 11.02,5.304C11.043,5.324 11.061,5.345 11.055,5.368Z" style="fill:rgb(255,215,0);"/>
                </g>
                <path d="M11.821,5.782C11.939,5.798 12.047,5.798 12.139,5.754C12.214,5.719 12.328,5.748 12.411,5.72C12.437,5.712 12.476,5.723 12.468,5.747C12.442,5.83 12.545,5.794 12.625,5.782C12.753,5.744 12.871,5.78 12.983,5.8C13.068,5.816 13.043,5.867 12.948,5.894C12.86,5.918 12.759,5.914 12.661,5.918C12.52,5.917 12.366,5.952 12.246,5.887C12.132,5.912 12.02,5.896 11.911,5.877C11.814,5.862 11.72,5.838 11.821,5.782Z" style="fill:rgb(255,215,0);"/>
                <path d="M12.625,5.909C12.69,5.878 12.779,5.901 12.852,5.891C12.918,5.882 13,5.875 13,5.836C13,5.797 12.922,5.801 12.86,5.795C12.781,5.789 12.706,5.778 12.625,5.782C12.678,5.723 12.783,5.747 12.858,5.76C12.928,5.773 12.977,5.791 13.029,5.75C13.056,5.73 13.104,5.736 13.135,5.749C13.187,5.769 13.204,5.767 13.238,5.738C13.273,5.71 13.513,5.756 13.566,5.797L13.566,5.813C13.473,5.815 13.384,5.824 13.293,5.829C13.23,5.832 13.142,5.831 13.15,5.868C13.156,5.902 13.248,5.883 13.294,5.894C13.312,5.896 13.327,5.899 13.341,5.903C13.371,5.91 13.396,5.921 13.435,5.912C13.479,5.901 13.525,5.895 13.549,5.921C13.575,5.947 13.576,5.975 13.521,5.992C13.472,6.005 13.429,6.021 13.392,6.041C13.371,6.046 13.347,6.046 13.323,6.042C13.268,6.003 13.187,6.03 13.119,6.025C13.052,6.02 12.983,6.026 12.915,6.016C12.884,6.012 12.856,6.006 12.827,6C12.746,5.981 12.682,5.954 12.632,5.918C12.628,5.916 12.627,5.913 12.625,5.909Z" style="fill:rgb(255,215,0);"/>
                <path d="M16.562,6.131C16.53,6.167 16.423,6.146 16.388,6.179C16.339,6.184 16.285,6.18 16.246,6.202C16.226,6.212 16.194,6.224 16.171,6.218C15.993,6.178 15.774,6.226 15.607,6.164C15.574,6.152 15.533,6.131 15.497,6.165C15.459,6.2 15.416,6.185 15.377,6.166C15.345,6.149 15.324,6.129 15.294,6.114C15.243,6.084 15.175,6.073 15.093,6.084C15.017,6.096 15.039,6.124 15.039,6.151C15.033,6.216 14.968,6.231 14.835,6.202C14.761,6.185 14.683,6.206 14.613,6.195C14.506,6.179 14.5,6.219 14.457,6.244C14.408,6.271 14.345,6.281 14.283,6.247C14.187,6.193 14.068,6.17 13.918,6.196C13.845,6.208 13.779,6.209 13.764,6.163C13.773,6.154 13.791,6.146 13.81,6.14C13.845,6.127 13.954,6.147 13.883,6.089C13.849,6.061 13.955,6.038 14.036,6.033C14.252,6.04 14.463,6.063 14.68,6.052C14.738,6.046 14.796,6.041 14.855,6.036C14.865,6.042 14.866,6.046 14.855,6.052C14.854,6.053 14.852,6.054 14.851,6.056C14.856,6.051 14.863,6.047 14.874,6.044C14.974,6.05 15.052,6.025 15.133,6.003C15.316,6.029 15.509,6.025 15.691,6.052C15.89,6.062 16.096,6.09 16.289,6.078C16.435,6.067 16.49,6.092 16.562,6.131Z" style="fill:rgb(255,215,0);"/>
                <path d="M11.821,5.782C11.785,5.831 11.834,5.852 11.937,5.865C12.071,5.881 12.196,5.887 12.345,5.834C12.307,5.889 12.288,5.922 12.42,5.902C12.481,5.893 12.557,5.906 12.625,5.909C12.606,5.98 12.505,6.002 12.362,6C12.345,6.001 12.33,6.002 12.314,6.002C12.248,6.003 12.19,5.99 12.127,5.986C12.066,5.982 12.003,5.962 11.952,6.004C11.922,6.03 11.844,6.015 11.799,5.997C11.696,5.955 11.581,5.953 11.461,5.972C11.375,5.986 11.294,5.961 11.208,5.972C11.169,5.977 11.128,5.954 11.138,5.935C11.167,5.878 11.147,5.813 11.259,5.768C11.345,5.763 11.428,5.763 11.509,5.782C11.531,5.776 11.555,5.771 11.579,5.765C11.601,5.755 11.625,5.755 11.648,5.765C11.709,5.763 11.768,5.766 11.821,5.782Z" style="fill:rgb(255,215,0);"/>
                <path d="M11.648,5.765L11.579,5.765C11.577,5.701 11.656,5.695 11.77,5.709C11.759,5.746 11.638,5.724 11.648,5.765Z" style="fill:rgb(255,215,0);"/>
                <path d="M15.133,6.003C15.084,6.073 14.955,6.045 14.854,6.052C14.854,6.046 14.854,6.041 14.855,6.036C14.849,6.018 14.783,6.009 14.812,5.989C14.834,5.973 14.861,5.984 14.879,5.996C14.902,6.009 14.912,6.035 14.964,6.027C15.006,6.02 14.993,6 14.993,5.985C14.993,5.964 14.992,5.947 14.937,5.933C14.82,5.904 14.668,5.935 14.562,5.887C14.56,5.886 14.525,5.897 14.512,5.904C14.495,5.915 14.479,5.935 14.455,5.93C14.319,5.901 14.185,5.875 14.033,5.862C14.128,5.852 14.212,5.842 14.31,5.842C14.484,5.844 14.661,5.818 14.837,5.802C14.845,5.801 14.848,5.789 14.855,5.782C14.904,5.841 15.035,5.829 15.133,5.845C15.169,5.866 15.169,5.887 15.133,5.909C15.093,5.94 15.003,5.972 15.133,6.003Z" style="fill:rgb(255,215,0);"/>
                <path d="M14.68,6.052C14.654,6.078 14.617,6.078 14.556,6.074C14.377,6.062 14.198,6.058 14.017,6.052C13.891,6.042 13.764,6.068 13.637,6.052C13.585,6.056 13.535,6.062 13.488,6.046C13.459,6.037 13.42,6.042 13.391,6.036C13.394,6.014 13.38,5.983 13.453,5.982C13.589,5.98 13.511,5.943 13.515,5.909C13.435,5.964 13.373,5.957 13.327,5.907C13.339,5.901 13.347,5.897 13.351,5.893C13.354,5.891 13.349,5.892 13.341,5.898C13.334,5.902 13.329,5.906 13.321,5.909C13.337,5.916 13.312,5.91 13.327,5.907C13.287,5.909 13.252,5.91 13.218,5.909C13.168,5.906 13.101,5.918 13.08,5.88C13.058,5.842 13.119,5.822 13.173,5.819C13.302,5.814 13.433,5.774 13.566,5.813C13.658,5.827 13.775,5.817 13.762,5.896C13.758,5.922 13.823,5.99 13.96,5.989C14.05,5.989 14.13,6.059 14.233,5.998C14.24,5.993 14.285,5.994 14.293,5.999C14.397,6.057 14.558,6.024 14.68,6.052Z" style="fill:rgb(255,215,0);"/>
                <path d="M12.832,5.989C12.862,5.989 12.888,5.991 12.902,6.003C12.979,6.027 13.084,5.995 13.156,6.031C13.189,6.067 13.125,6.08 13.077,6.096C13.003,6.12 12.92,6.112 12.839,6.111C12.79,6.108 12.74,6.097 12.69,6.104C12.676,6.107 12.659,6.114 12.676,6.121C12.687,6.126 12.708,6.122 12.724,6.121C12.777,6.124 12.832,6.118 12.88,6.132C12.908,6.151 12.915,6.172 12.918,6.193C12.895,6.242 12.766,6.219 12.722,6.255C12.71,6.259 12.698,6.263 12.684,6.266C12.667,6.267 12.65,6.267 12.635,6.266C12.573,6.259 12.505,6.262 12.461,6.236C12.437,6.21 12.391,6.208 12.338,6.207C12.257,6.206 12.2,6.187 12.188,6.147C12.198,6.121 12.248,6.122 12.292,6.116C12.315,6.112 12.371,6.117 12.347,6.09C12.303,6.064 12.279,6.037 12.312,6.003C12.323,5.999 12.334,5.993 12.345,5.989C12.375,5.977 12.402,5.981 12.428,5.992C12.467,6.019 12.512,6.012 12.558,5.996C12.648,5.98 12.738,5.967 12.832,5.989Z" style="fill:rgb(255,215,0);"/>
                <path d="M13.042,6.084C13.066,6.063 13.154,6.071 13.146,6.036C13.206,6.028 13.262,5.998 13.321,6.036L13.391,6.036C13.425,6.034 13.46,5.975 13.496,6.036C13.507,6.107 13.638,6.063 13.689,6.077C13.726,6.086 13.728,6.069 13.72,6.079C13.718,6.081 13.712,6.081 13.705,6.079C13.67,6.069 13.612,6.066 13.635,6.036C13.76,6.048 13.896,6.018 14.017,6.052C13.962,6.053 13.902,6.066 13.906,6.089C13.912,6.129 14.007,6.107 14.068,6.124C13.984,6.168 13.855,6.129 13.773,6.163C13.764,6.168 13.75,6.17 13.734,6.17C13.696,6.167 13.658,6.167 13.625,6.179C13.613,6.183 13.599,6.186 13.584,6.188C13.552,6.191 13.525,6.186 13.498,6.179C13.485,6.176 13.47,6.173 13.457,6.17C13.412,6.166 13.365,6.142 13.32,6.169C13.312,6.179 13.306,6.188 13.294,6.197C13.277,6.204 13.255,6.206 13.232,6.205C13.218,6.203 13.204,6.2 13.191,6.196C13.158,6.181 13.123,6.167 13.142,6.142C13.193,6.092 13.062,6.108 13.042,6.084Z" style="fill:rgb(255,215,0);"/>
                <path d="M12.832,5.989C12.738,5.997 12.639,5.996 12.555,6.02C12.496,6.036 12.45,6.028 12.415,6.003C12.4,5.991 12.375,5.989 12.345,5.989C12.461,5.978 12.566,5.96 12.625,5.909C12.716,5.922 12.751,5.968 12.832,5.989Z" style="fill:rgb(255,215,0);"/>
                <path d="M13.321,6.036C13.262,6.018 13.206,6.041 13.146,6.036C13.077,6.007 12.97,6.036 12.902,6.003C13.019,5.993 13.141,6.022 13.262,5.987C13.312,5.971 13.316,6.014 13.321,6.036Z" style="fill:rgb(255,215,0);"/>
                <path d="M13.738,6.163L13.773,6.163C13.798,6.183 13.825,6.2 13.881,6.184C14,6.151 14.11,6.15 14.212,6.196C14.248,6.211 14.384,6.185 14.316,6.247C14.308,6.252 14.349,6.259 14.371,6.255C14.416,6.244 14.482,6.231 14.448,6.205C14.402,6.168 14.428,6.156 14.497,6.167C14.595,6.181 14.689,6.176 14.786,6.173C14.818,6.172 14.855,6.175 14.882,6.181C14.906,6.187 14.869,6.228 14.941,6.209C14.984,6.197 15.029,6.17 15.002,6.149C14.951,6.108 14.944,6.083 15.058,6.066C15.169,6.048 15.263,6.054 15.335,6.096C15.375,6.121 15.404,6.149 15.442,6.179C15.47,6.153 15.425,6.124 15.486,6.11C15.551,6.094 15.557,6.128 15.591,6.139C15.68,6.166 15.766,6.19 15.882,6.18C15.923,6.176 15.964,6.17 16.015,6.182C16.087,6.2 16.172,6.225 16.245,6.17C16.271,6.15 16.341,6.168 16.388,6.179C16.347,6.198 16.302,6.216 16.285,6.243C16.148,6.275 15.998,6.279 15.852,6.29C15.75,6.296 15.635,6.275 15.546,6.318C15.533,6.324 15.5,6.335 15.49,6.321C15.439,6.244 15.375,6.306 15.322,6.318C15.21,6.345 15.1,6.383 15.003,6.309C15.002,6.307 14.994,6.307 14.989,6.305C14.913,6.283 14.832,6.267 14.748,6.294C14.662,6.323 14.791,6.347 14.759,6.389C14.623,6.33 14.503,6.26 14.296,6.291C14.073,6.324 13.849,6.318 13.627,6.288C13.612,6.285 13.601,6.28 13.591,6.274C13.554,6.242 13.417,6.208 13.601,6.179C13.635,6.155 13.681,6.147 13.738,6.163Z" style="fill:rgb(255,215,0);"/>
                <path d="M14.332,6.37C14.459,6.42 14.296,6.454 14.296,6.497L14.296,6.498C14.212,6.516 14.111,6.5 14.027,6.523C14.01,6.524 13.994,6.525 13.977,6.526C13.883,6.511 13.766,6.535 13.696,6.487C13.718,6.467 13.769,6.468 13.808,6.455C13.754,6.446 13.742,6.466 13.716,6.476C13.675,6.496 13.633,6.489 13.589,6.476C13.556,6.436 13.475,6.441 13.404,6.438C13.337,6.435 13.268,6.438 13.202,6.433C13.077,6.423 12.953,6.411 12.827,6.43C12.768,6.438 12.712,6.43 12.665,6.412C12.633,6.399 12.627,6.379 12.615,6.362C12.589,6.321 12.63,6.306 12.714,6.32C12.766,6.328 12.814,6.334 12.867,6.329C12.9,6.328 12.933,6.331 12.966,6.333C13.191,6.348 13.415,6.341 13.637,6.321C13.675,6.334 13.681,6.369 13.756,6.363C13.771,6.362 13.787,6.363 13.8,6.364C13.869,6.368 13.937,6.371 14,6.355C14.11,6.346 14.148,6.376 14.177,6.414C14.214,6.395 14.242,6.36 14.332,6.37Z" style="fill:rgb(255,215,0);"/>
                <path d="M14.332,6.37C14.227,6.448 14.123,6.39 14.017,6.37C13.937,6.382 13.855,6.382 13.773,6.37C13.724,6.364 13.662,6.367 13.635,6.337C13.545,6.304 13.505,6.365 13.408,6.363C13.253,6.359 13.095,6.345 12.937,6.354C12.922,6.266 12.957,6.251 13.139,6.262C13.196,6.266 13.25,6.244 13.312,6.248C13.335,6.249 13.358,6.252 13.378,6.257C13.448,6.272 13.527,6.267 13.601,6.275C13.83,6.29 14.064,6.292 14.296,6.291C14.308,6.317 14.319,6.343 14.332,6.37Z" style="fill:rgb(255,215,0);"/>
                <path d="M13.738,6.592L13.703,6.592C13.613,6.61 13.525,6.625 13.455,6.66C13.394,6.69 13.121,6.701 13.042,6.68C13.015,6.674 12.985,6.66 12.964,6.665C12.772,6.714 12.56,6.636 12.362,6.686C12.279,6.708 12.158,6.682 12.064,6.71C11.939,6.666 11.932,6.646 12.038,6.61C11.95,6.597 11.866,6.6 11.786,6.59C11.722,6.583 11.65,6.596 11.654,6.634C11.662,6.701 11.537,6.703 11.46,6.71C11.375,6.718 11.29,6.69 11.286,6.642C11.284,6.61 11.18,6.596 11.22,6.559C11.253,6.541 11.286,6.523 11.305,6.5C11.323,6.477 11.36,6.47 11.415,6.472C11.581,6.479 11.739,6.455 11.902,6.447C11.917,6.444 11.933,6.442 11.948,6.442C11.974,6.445 11.994,6.451 12.01,6.459C12.023,6.463 12.035,6.468 12.044,6.474C12.086,6.488 12.106,6.531 12.188,6.491C12.226,6.472 12.292,6.477 12.345,6.49C12.364,6.497 12.377,6.505 12.386,6.515C12.467,6.603 12.555,6.608 12.716,6.533C12.724,6.526 12.736,6.522 12.751,6.519C12.88,6.523 13.011,6.517 13.135,6.539C13.24,6.53 13.343,6.499 13.452,6.539C13.466,6.545 13.512,6.527 13.547,6.53C13.564,6.53 13.58,6.532 13.595,6.535C13.644,6.546 13.696,6.557 13.74,6.573C13.75,6.58 13.75,6.586 13.738,6.592Z" style="fill:rgb(255,215,0);"/>
                <path d="M12.066,6.704C12.281,6.685 12.48,6.61 12.716,6.667C12.753,6.676 12.805,6.676 12.83,6.662C12.911,6.615 12.983,6.636 13.064,6.661C13.104,6.671 13.183,6.744 13.198,6.652C13.2,6.648 13.222,6.642 13.224,6.643C13.385,6.709 13.448,6.605 13.568,6.6C13.613,6.597 13.66,6.595 13.703,6.592C13.667,6.611 13.617,6.625 13.681,6.655C13.766,6.694 13.792,6.731 13.63,6.749C13.589,6.753 13.566,6.776 13.566,6.799C13.494,6.798 13.425,6.813 13.359,6.781C13.275,6.742 13.166,6.79 13.133,6.805C13.06,6.842 12.976,6.831 12.898,6.84C12.837,6.848 12.801,6.847 12.755,6.818C12.674,6.766 12.523,6.793 12.411,6.771C12.391,6.766 12.347,6.778 12.349,6.756C12.349,6.677 12.218,6.711 12.136,6.704C12.111,6.713 12.089,6.712 12.066,6.704Z" style="fill:rgb(255,215,0);"/>
                <path d="M14.158,6.544C14.198,6.588 14.238,6.633 14.285,6.683C14.231,6.678 14.195,6.675 14.158,6.672C14.104,6.65 14.076,6.606 13.974,6.629C13.946,6.626 13.925,6.632 13.915,6.644C13.9,6.647 13.889,6.645 13.878,6.64C13.855,6.625 13.832,6.608 13.808,6.592C13.798,6.586 13.794,6.58 13.802,6.573C13.841,6.548 13.889,6.526 13.959,6.542C14.058,6.562 13.966,6.508 14.017,6.513C14.076,6.512 14.144,6.503 14.158,6.544Z" style="fill:rgb(255,215,0);"/>
                <path d="M13.878,6.64L13.914,6.64C13.921,6.633 13.927,6.625 13.948,6.625C14.075,6.579 14.119,6.588 14.158,6.672C14.058,6.673 13.968,6.656 13.878,6.64Z" style="fill:rgb(255,215,0);"/>
                <path d="M13.808,6.577L13.808,6.592C13.764,6.602 13.787,6.626 13.758,6.641C13.722,6.626 13.748,6.608 13.738,6.592L13.738,6.577C13.736,6.565 13.744,6.556 13.773,6.556C13.804,6.556 13.812,6.565 13.808,6.577Z" style="fill:rgb(255,215,0);"/>
                <path d="M14.158,6.544C14.111,6.535 14.064,6.524 14.017,6.513C14.102,6.478 14.198,6.48 14.296,6.498C14.295,6.523 14.349,6.529 14.377,6.543C14.41,6.558 14.496,6.565 14.454,6.592C14.437,6.602 14.337,6.597 14.295,6.584C14.25,6.573 14.224,6.545 14.158,6.544Z" style="fill:rgb(255,215,0);"/>
                <path d="M14.854,6.052C14.867,6.068 14.947,6.074 14.896,6.101C14.874,6.112 14.847,6.114 14.824,6.1C14.788,6.079 14.8,6.062 14.854,6.052Z" style="fill:rgb(255,215,0);"/>
                <path d="M14.709,6.122C14.687,6.129 14.669,6.138 14.665,6.137C14.648,6.132 14.633,6.125 14.623,6.118C14.621,6.117 14.644,6.104 14.65,6.105C14.668,6.108 14.683,6.115 14.709,6.122Z" style="fill:rgb(255,215,0);"/>
                <path d="M11.509,6.131C11.301,6.215 11.059,6.194 10.82,6.179C10.715,6.172 10.632,6.174 10.535,6.205C10.42,6.24 10.434,6.139 10.323,6.147C10.278,6.15 10.23,6.147 10.184,6.147C10.173,6.131 10.162,6.116 10.149,6.1C10.208,6.078 10.265,6.081 10.323,6.099C10.379,6.056 10.356,6.04 10.231,6.037C10.136,6.034 10.035,6.042 9.963,6C10.003,5.976 10.083,6 10.114,5.972C10.265,5.939 10.392,5.989 10.529,5.997C10.564,5.999 10.594,6.02 10.638,6.003C10.724,5.958 10.855,6 10.95,5.972C11.121,5.988 11.297,5.97 11.466,5.988C11.608,6.002 11.755,5.989 11.891,6.011C11.908,6.014 11.933,6.015 11.943,6.01C12.073,5.948 12.211,5.994 12.345,6.003C12.315,6.035 12.332,6.06 12.38,6.084C12.362,6.122 12.301,6.112 12.25,6.104C12.136,6.088 12.025,6.105 11.913,6.107C11.891,6.112 11.922,6.125 11.911,6.116C11.878,6.085 12.069,6.107 12.206,6.147C12.246,6.176 12.285,6.204 12.378,6.188C12.455,6.174 12.476,6.198 12.485,6.227C12.446,6.246 12.384,6.224 12.345,6.243C12.229,6.227 12.127,6.186 11.992,6.215C11.946,6.225 11.928,6.199 11.9,6.187C11.819,6.153 11.73,6.127 11.614,6.131C11.606,6.124 11.614,6.113 11.603,6.109C11.537,6.081 11.266,6.084 11.156,6.12C11.241,6.119 11.296,6.095 11.358,6.107C11.408,6.116 11.488,6.085 11.509,6.131Z" style="fill:rgb(255,215,0);"/>
                <path d="M12.345,6.003C12.128,5.986 11.922,6.012 11.713,6.03C11.628,6.037 11.535,6.011 11.444,6.007C11.355,6.004 11.257,5.98 11.172,6.019C11.13,6.039 11.103,6.032 11.088,6.007C11.067,5.975 11.011,5.971 10.95,5.972C11.063,5.94 11.191,5.918 11.02,5.844C10.924,5.802 11.101,5.808 11.125,5.782L11.23,5.782C11.241,5.828 11.209,5.87 11.174,5.912C11.162,5.927 11.156,5.943 11.183,5.956C11.22,5.972 11.253,5.945 11.268,5.948C11.373,5.964 11.468,5.93 11.567,5.94C11.665,5.95 11.79,5.929 11.845,5.992C11.851,5.998 11.902,6.002 11.924,5.999C11.965,5.99 11.926,5.979 11.919,5.967C11.9,5.937 11.941,5.942 11.985,5.947C12.105,5.961 12.226,5.974 12.345,5.989L12.345,6.003Z" style="fill:rgb(255,215,0);"/>
                <path d="M10.95,5.972C10.873,6.038 10.737,5.982 10.638,6.003C10.62,5.958 10.722,5.927 10.849,5.944C10.886,5.949 10.917,5.962 10.95,5.972Z" style="fill:rgb(255,215,0);"/>
                <path d="M10.638,6.003C10.523,6.027 10.42,5.99 10.313,5.986C10.25,5.984 10.182,5.974 10.114,5.972C10.13,5.928 10.21,5.934 10.259,5.946C10.379,5.974 10.529,5.961 10.638,6.003Z" style="fill:rgb(255,215,0);"/>
                <path d="M13.635,6.036C13.667,6.077 13.781,6.07 13.859,6.114C13.733,6.104 13.644,6.086 13.545,6.105C13.513,6.111 13.42,6.074 13.496,6.036C13.542,6.051 13.587,6.037 13.635,6.036Z" style="fill:rgb(255,215,0);"/>
                <path d="M13.308,5.878C13.3,5.862 13.321,5.851 13.352,5.85C13.391,5.849 13.415,5.862 13.418,5.879C13.423,5.901 13.394,5.906 13.356,5.909C13.291,5.914 13.333,5.885 13.308,5.878Z" style="fill:rgb(255,215,0);"/>
                <path d="M13.321,6.258C13.287,6.282 13.189,6.25 13.173,6.292C13.171,6.295 13.156,6.301 13.148,6.3C12.981,6.292 12.981,6.292 12.937,6.354C12.915,6.348 12.891,6.343 12.867,6.337C12.836,6.348 12.79,6.351 12.773,6.339C12.73,6.307 12.823,6.298 12.837,6.279C12.775,6.295 12.72,6.302 12.694,6.258C12.746,6.235 12.817,6.24 12.88,6.232C12.904,6.223 12.963,6.239 12.959,6.209C12.94,6.203 12.924,6.197 12.902,6.195C12.852,6.178 12.873,6.154 12.867,6.131C12.935,6.119 12.987,6.141 13.045,6.147C13.11,6.158 13.146,6.188 13.216,6.195C13.244,6.218 13.329,6.222 13.321,6.258Z" style="fill:rgb(255,215,0);"/>
                <path d="M12.206,6.147C12.101,6.135 11.996,6.124 11.891,6.113C12.018,6.092 12.134,6.044 12.275,6.089C12.312,6.101 12.349,6.102 12.38,6.084C12.406,6.088 12.446,6.091 12.452,6.099C12.468,6.119 12.415,6.11 12.402,6.117C12.349,6.146 12.257,6.12 12.206,6.147Z" style="fill:rgb(255,215,0);"/>
                <path d="M13.042,6.163C12.985,6.153 12.926,6.142 12.867,6.131C12.821,6.146 12.775,6.146 12.73,6.131C12.728,6.095 12.762,6.085 12.832,6.099C12.897,6.079 12.981,6.116 13.042,6.084C13.08,6.085 13.121,6.084 13.158,6.088C13.193,6.092 13.242,6.097 13.236,6.12C13.232,6.141 13.187,6.146 13.146,6.147C13.123,6.167 13.073,6.152 13.042,6.163Z" style="fill:rgb(255,215,0);"/>
                <path d="M12.694,6.258C12.74,6.287 12.814,6.266 12.841,6.272C12.95,6.299 12.669,6.317 12.867,6.337C12.788,6.377 12.728,6.334 12.654,6.326C12.603,6.352 12.718,6.376 12.659,6.402C12.63,6.407 12.609,6.399 12.591,6.39C12.534,6.359 12.569,6.313 12.508,6.283C12.538,6.249 12.591,6.244 12.659,6.258L12.694,6.258Z" style="fill:rgb(255,215,0);"/>
                <path d="M12.902,6.243C12.841,6.271 12.764,6.253 12.694,6.258C12.694,6.191 12.849,6.227 12.902,6.195C12.926,6.178 12.95,6.178 12.972,6.195C13.025,6.234 12.933,6.229 12.902,6.243Z" style="fill:rgb(255,215,0);"/>
                <path d="M12.832,6.099C12.783,6.1 12.748,6.11 12.73,6.131C12.69,6.13 12.672,6.167 12.63,6.144C12.611,6.134 12.608,6.115 12.611,6.1C12.621,6.074 12.663,6.078 12.706,6.082C12.75,6.087 12.801,6.078 12.832,6.099Z" style="fill:rgb(255,215,0);"/>
                <path d="M12.659,6.258C12.599,6.257 12.545,6.261 12.52,6.291C12.531,6.295 12.532,6.301 12.52,6.306C12.446,6.293 12.472,6.224 12.345,6.243C12.382,6.219 12.437,6.229 12.485,6.227C12.525,6.257 12.617,6.228 12.659,6.258Z" style="fill:rgb(255,215,0);"/>
                <path d="M12.415,6.003C12.457,6.015 12.503,6.023 12.555,6.02C12.492,6.042 12.439,6.049 12.415,6.003Z" style="fill:rgb(255,215,0);"/>
                <path d="M13.601,6.275C13.517,6.304 13.437,6.283 13.356,6.274C13.42,6.232 13.266,6.229 13.287,6.195L13.287,6.163C13.356,6.139 13.425,6.155 13.496,6.163C13.511,6.205 13.486,6.252 13.601,6.275Z" style="fill:rgb(255,215,0);"/>
                <path d="M13.601,6.275C13.437,6.262 13.459,6.214 13.496,6.163C13.531,6.168 13.566,6.173 13.601,6.179C13.538,6.213 13.54,6.217 13.608,6.228C13.72,6.248 13.601,6.259 13.601,6.275Z" style="fill:rgb(255,215,0);"/>
                <path d="M13.287,6.195C13.314,6.22 13.543,6.209 13.356,6.274C13.345,6.269 13.333,6.263 13.321,6.258C13.281,6.24 13.193,6.236 13.216,6.195L13.287,6.195Z" style="fill:rgb(255,215,0);"/>
                <path d="M13.042,6.163C13.068,6.144 13.108,6.147 13.146,6.147C13.17,6.163 13.193,6.179 13.216,6.195C13.127,6.219 13.104,6.169 13.042,6.163Z" style="fill:rgb(255,215,0);"/>
                <path d="M13.496,6.163L13.287,6.163C13.356,6.095 13.425,6.158 13.496,6.163Z" style="fill:rgb(255,215,0);"/>
                <path d="M13.738,6.163C13.689,6.161 13.642,6.167 13.601,6.179C13.625,6.134 13.677,6.141 13.738,6.163Z" style="fill:rgb(255,215,0);"/>
                <path d="M15.273,6.297C14.998,6.276 14.966,6.254 15.111,6.167C15.027,6.251 15.349,6.217 15.273,6.297Z" style="fill:rgb(255,215,0);"/>
                <path d="M15.583,6.222C15.589,6.229 15.603,6.236 15.603,6.242C15.605,6.255 15.58,6.257 15.559,6.254C15.548,6.253 15.542,6.245 15.533,6.24C15.544,6.236 15.556,6.232 15.583,6.222Z" style="fill:rgb(255,215,0);"/>
                <path d="M12.623,6.385C12.635,6.391 12.647,6.396 12.659,6.402C12.785,6.434 12.908,6.391 13.035,6.401C13.097,6.405 13.16,6.402 13.216,6.417C13.312,6.449 13.455,6.421 13.537,6.471C13.54,6.491 13.505,6.496 13.473,6.502C13.457,6.505 13.441,6.506 13.422,6.506C13.308,6.5 13.193,6.495 13.077,6.5C13,6.503 12.928,6.493 12.867,6.469C12.823,6.453 12.773,6.454 12.724,6.46C12.7,6.46 12.678,6.459 12.658,6.454C12.609,6.42 12.534,6.433 12.468,6.429C12.411,6.425 12.338,6.445 12.301,6.407C12.395,6.347 12.433,6.345 12.623,6.385Z" style="fill:rgb(255,215,0);"/>
                <path d="M13.808,6.577C13.787,6.561 13.762,6.56 13.738,6.577C13.679,6.578 13.627,6.574 13.601,6.544C13.582,6.527 13.562,6.508 13.584,6.488C13.589,6.486 13.595,6.484 13.599,6.481C13.633,6.472 13.668,6.471 13.703,6.481C13.798,6.511 13.919,6.488 14.017,6.513C14.012,6.542 14.085,6.542 14.119,6.562C14.012,6.597 13.896,6.521 13.808,6.577Z" style="fill:rgb(255,215,0);"/>
                <path d="M13.531,6.481C13.443,6.444 13.289,6.472 13.216,6.417C13.314,6.419 13.415,6.426 13.505,6.421C13.652,6.414 13.623,6.444 13.599,6.481L13.601,6.481C13.576,6.491 13.552,6.49 13.531,6.481Z" style="fill:rgb(255,215,0);"/>
                <path d="M13.703,6.481C13.712,6.46 13.679,6.427 13.753,6.422C13.793,6.419 13.841,6.431 13.883,6.439C13.904,6.443 13.915,6.456 13.9,6.466C13.875,6.487 13.83,6.48 13.792,6.481C13.762,6.482 13.733,6.481 13.703,6.481Z" style="fill:rgb(255,215,0);"/>
                <path d="M13.635,6.337C13.681,6.348 13.728,6.359 13.773,6.37C13.67,6.412 13.652,6.375 13.635,6.337Z" style="fill:rgb(255,215,0);"/>
                <path d="M13.773,6.37L14.017,6.37C13.937,6.395 13.855,6.395 13.773,6.37Z" style="fill:rgb(255,215,0);"/>
                <path d="M12.066,6.704L12.136,6.704C12.13,6.741 12.233,6.737 12.252,6.764C12.229,6.783 12.196,6.783 12.16,6.78C12.042,6.769 12.035,6.769 12.044,6.82C12.051,6.855 12.002,6.842 11.97,6.847C11.891,6.858 11.819,6.834 11.761,6.823C11.654,6.802 11.567,6.763 11.472,6.828C11.351,6.791 11.244,6.821 11.127,6.836C11.093,6.841 11.033,6.783 10.939,6.799C10.934,6.755 11.02,6.778 11.035,6.748C10.994,6.735 10.93,6.71 10.897,6.745C10.833,6.81 10.755,6.797 10.652,6.773C10.62,6.765 10.573,6.769 10.533,6.767C10.531,6.764 10.529,6.76 10.527,6.756C10.597,6.735 10.665,6.713 10.663,6.668C10.724,6.641 10.788,6.619 10.829,6.582C10.882,6.532 11.013,6.553 11.097,6.531C11.154,6.529 11.206,6.533 11.23,6.561C11.235,6.598 11.384,6.602 11.331,6.658C11.322,6.667 11.406,6.696 11.47,6.701C11.446,6.655 11.648,6.703 11.597,6.631C11.555,6.574 11.718,6.558 11.773,6.566C11.9,6.584 12.055,6.568 12.154,6.625C12.105,6.657 12.042,6.626 11.98,6.629C12.025,6.654 11.986,6.692 12.066,6.704Z" style="fill:rgb(255,215,0);"/>
                <path d="M10.358,6.767C10.323,6.741 10.318,6.717 10.393,6.704C10.467,6.713 10.515,6.733 10.533,6.767C10.474,6.802 10.418,6.763 10.358,6.767Z" style="fill:rgb(255,215,0);"/>
                <path d="M10.708,6.337C10.713,6.32 10.691,6.29 10.77,6.297C10.865,6.307 10.98,6.259 11.061,6.325C11.086,6.345 11.213,6.359 11.266,6.348C11.402,6.321 11.559,6.364 11.684,6.316C11.735,6.297 11.783,6.314 11.829,6.324C11.926,6.344 12.022,6.368 12.136,6.354C12.211,6.366 12.237,6.398 12.275,6.424C12.275,6.451 12.349,6.454 12.353,6.479C12.343,6.486 12.33,6.488 12.314,6.489L12.165,6.489C12.105,6.486 12.044,6.485 11.996,6.465C11.985,6.46 11.972,6.455 11.961,6.449C12.007,6.394 11.913,6.4 11.849,6.401C11.765,6.402 11.68,6.411 11.595,6.417C11.529,6.422 11.47,6.422 11.415,6.404C11.273,6.387 11.132,6.374 11.011,6.428C10.97,6.435 10.93,6.435 10.889,6.426C10.818,6.407 10.704,6.407 10.713,6.348C10.711,6.345 10.71,6.341 10.708,6.337Z" style="fill:rgb(255,215,0);"/>
                <path d="M12.867,6.449C12.946,6.484 13.042,6.484 13.142,6.48C13.25,6.475 13.358,6.475 13.46,6.497C13.41,6.542 13.316,6.52 13.242,6.523C13.194,6.524 13.168,6.529 13.146,6.545C13.097,6.548 13.039,6.607 12.998,6.541C12.994,6.535 12.976,6.53 12.964,6.524C12.893,6.595 12.807,6.514 12.73,6.529C12.67,6.511 12.609,6.499 12.522,6.503C12.599,6.511 12.672,6.508 12.73,6.529C12.746,6.539 12.764,6.548 12.783,6.558C12.692,6.591 12.569,6.59 12.47,6.62C12.417,6.634 12.411,6.588 12.388,6.571C12.36,6.549 12.358,6.522 12.345,6.498C12.328,6.492 12.328,6.487 12.345,6.481C12.43,6.429 12.544,6.44 12.659,6.449L12.728,6.449C12.775,6.453 12.821,6.441 12.867,6.449Z" style="fill:rgb(255,215,0);"/>
                <path d="M10.88,6.417L11.02,6.417C11.148,6.375 11.297,6.391 11.439,6.385C11.571,6.421 11.702,6.387 11.831,6.379C11.9,6.375 11.946,6.377 11.996,6.398C12.02,6.407 12.066,6.408 12.059,6.428C12.047,6.454 11.998,6.447 11.961,6.449L11.926,6.449C11.763,6.481 11.589,6.473 11.419,6.473C11.386,6.473 11.353,6.467 11.318,6.466C11.211,6.441 11.103,6.473 10.994,6.465C10.978,6.464 10.963,6.461 10.946,6.459C10.914,6.449 10.867,6.443 10.88,6.417Z" style="fill:rgb(255,215,0);"/>
                <path d="M11.299,6.449C11.509,6.482 11.718,6.457 11.926,6.449C11.922,6.477 11.882,6.48 11.831,6.48C11.715,6.479 11.595,6.464 11.5,6.514C11.437,6.545 11.428,6.45 11.349,6.495C11.312,6.515 11.36,6.563 11.246,6.561L11.23,6.561C11.187,6.549 11.142,6.542 11.09,6.544C10.93,6.54 10.794,6.499 10.638,6.486C10.612,6.469 10.618,6.456 10.654,6.443C10.755,6.426 10.855,6.428 10.95,6.449C11.067,6.478 11.183,6.433 11.299,6.449Z" style="fill:rgb(255,215,0);"/>
                <path d="M13.146,6.545C13.152,6.523 13.133,6.497 13.226,6.505C13.302,6.513 13.384,6.508 13.46,6.497C13.556,6.485 13.591,6.5 13.566,6.544C13.472,6.565 13.38,6.533 13.283,6.542C13.238,6.547 13.179,6.53 13.175,6.571C13.175,6.583 13.154,6.576 13.15,6.569C13.146,6.561 13.148,6.553 13.146,6.545Z" style="fill:rgb(255,215,0);"/>
                <path d="M12.345,6.481L12.345,6.498C12.231,6.486 12.162,6.509 12.113,6.56C12.103,6.521 12.053,6.5 11.996,6.481C12.055,6.469 12.113,6.469 12.17,6.481L12.345,6.481Z" style="fill:rgb(255,215,0);"/>
                <path d="M13.566,6.544C13.562,6.514 13.527,6.499 13.46,6.497C13.475,6.484 13.502,6.482 13.531,6.481L13.601,6.481C13.584,6.502 13.635,6.524 13.601,6.544L13.566,6.544Z" style="fill:rgb(255,215,0);"/>
                <path d="M12.17,6.481L11.996,6.481L11.996,6.465C12.055,6.469 12.121,6.455 12.17,6.481Z" style="fill:rgb(255,215,0);"/>
                <path d="M13.948,6.625C13.937,6.629 13.925,6.635 13.914,6.64C13.91,6.626 13.865,6.612 13.906,6.601C13.939,6.593 13.945,6.613 13.948,6.625Z" style="fill:rgb(255,215,0);"/>
                <path d="M10.638,6.481C10.813,6.465 10.95,6.507 11.09,6.544C11.047,6.55 11.022,6.579 10.972,6.571C10.889,6.558 10.862,6.574 10.843,6.608C10.825,6.648 10.752,6.663 10.673,6.672C10.579,6.7 10.489,6.72 10.4,6.667C10.386,6.66 10.347,6.662 10.323,6.672L10.289,6.672C10.199,6.649 10.231,6.613 10.242,6.579C10.252,6.573 10.263,6.567 10.276,6.563C10.333,6.55 10.392,6.542 10.456,6.554C10.39,6.542 10.351,6.522 10.379,6.487C10.461,6.448 10.545,6.44 10.638,6.481Z" style="fill:rgb(255,215,0);"/>
                <path d="M9.767,6.688C9.72,6.658 9.653,6.614 9.686,6.59C9.737,6.554 9.812,6.606 9.882,6.608C9.928,6.608 9.973,6.614 10.018,6.618C10.057,6.622 10.098,6.618 10.092,6.598C10.086,6.581 10.105,6.542 10.009,6.561C9.926,6.526 9.959,6.499 10.037,6.473C10.055,6.473 10.072,6.474 10.086,6.478C10.116,6.52 10.226,6.535 10.253,6.577C10.195,6.629 10.165,6.7 9.974,6.672C9.894,6.645 9.827,6.658 9.767,6.688Z" style="fill:rgb(255,215,0);"/>
                <path d="M10.323,6.672C10.439,6.641 10.555,6.7 10.673,6.672C10.759,6.745 10.623,6.749 10.533,6.767C10.505,6.737 10.399,6.744 10.393,6.704C10.392,6.683 10.369,6.672 10.323,6.672Z" style="fill:rgb(255,215,0);"/>
                <path d="M9.974,6.672C10.064,6.654 10.204,6.659 10.176,6.584C10.176,6.584 10.228,6.579 10.253,6.577C10.292,6.606 10.226,6.644 10.289,6.672C10.228,6.68 10.167,6.689 10.106,6.697C10.048,6.705 9.989,6.712 9.974,6.672Z" style="fill:rgb(255,215,0);"/>
                <path d="M10.149,6.385C10.048,6.374 10.031,6.346 10.079,6.306C10.118,6.285 10.175,6.267 10.171,6.235C10.167,6.218 10.094,6.199 10.173,6.185C10.219,6.177 10.242,6.199 10.268,6.211C10.331,6.243 10.452,6.265 10.335,6.321C10.313,6.332 10.333,6.352 10.384,6.345C10.39,6.345 10.395,6.343 10.4,6.341C10.5,6.306 10.603,6.306 10.708,6.337C10.752,6.374 10.721,6.4 10.658,6.422C10.562,6.384 10.46,6.399 10.364,6.419C10.298,6.434 10.244,6.429 10.188,6.414C10.167,6.407 10.152,6.397 10.149,6.385Z" style="fill:rgb(255,215,0);"/>
                <path d="M11.509,6.131C11.408,6.137 11.273,6.088 11.213,6.167C11.206,6.177 11.156,6.172 11.158,6.165C11.169,6.131 11.092,6.106 11.116,6.079C11.136,6.055 11.209,6.067 11.257,6.068C11.406,6.072 11.563,6.059 11.718,6.097C11.674,6.112 11.643,6.122 11.614,6.131L11.509,6.131Z" style="fill:rgb(255,215,0);"/>
                <path d="M12.275,6.434C12.18,6.424 12.194,6.375 12.136,6.354C12.206,6.334 12.266,6.306 12.364,6.338C12.386,6.346 12.467,6.318 12.52,6.306L12.52,6.291C12.643,6.302 12.558,6.361 12.623,6.385C12.522,6.4 12.382,6.34 12.31,6.417C12.319,6.432 12.307,6.437 12.275,6.434Z" style="fill:rgb(255,215,0);"/>
                <path d="M11.961,6.29C11.937,6.294 11.919,6.301 11.913,6.299C11.895,6.294 11.875,6.287 11.871,6.279C11.864,6.264 11.891,6.26 11.913,6.266C11.93,6.27 11.941,6.279 11.961,6.29Z" style="fill:rgb(255,215,0);"/>
                <path d="M10.603,6.067C10.706,6.088 10.801,6.032 10.902,6.067C10.939,6.081 11.015,6.083 10.983,6.114C10.956,6.139 10.906,6.151 10.856,6.116C10.827,6.095 10.781,6.103 10.753,6.119C10.704,6.147 10.647,6.14 10.584,6.132C10.523,6.126 10.432,6.134 10.439,6.095C10.45,6.046 10.551,6.078 10.603,6.067Z" style="fill:rgb(255,215,0);"/>
                <path d="M9.696,6.465C9.812,6.486 9.928,6.455 10.044,6.465C10.061,6.47 10.061,6.476 10.046,6.481C9.998,6.504 9.979,6.531 10.009,6.561C9.894,6.595 9.807,6.528 9.696,6.54C9.774,6.52 9.717,6.5 9.696,6.481L9.696,6.465Z" style="fill:rgb(255,215,0);"/>
                <path d="M12.902,6.243C12.924,6.226 12.977,6.219 12.972,6.195C13.007,6.205 13.064,6.216 13.045,6.232C13.017,6.254 12.951,6.239 12.902,6.243Z" style="fill:rgb(255,215,0);"/>
                <path d="M12.275,6.434C12.287,6.428 12.299,6.422 12.31,6.417C12.398,6.402 12.489,6.41 12.579,6.41C12.609,6.41 12.702,6.408 12.659,6.449C12.564,6.48 12.441,6.451 12.345,6.481C12.334,6.46 12.224,6.472 12.275,6.434Z" style="fill:rgb(255,215,0);"/>
                <path d="M12.867,6.449C12.821,6.458 12.775,6.478 12.728,6.449C12.775,6.426 12.821,6.426 12.867,6.449Z" style="fill:rgb(255,215,0);"/>
                <path d="M11.25,6.625C11.244,6.64 11.226,6.652 11.196,6.651C11.156,6.647 11.099,6.649 11.086,6.626C11.079,6.614 11.123,6.609 11.152,6.609C11.187,6.61 11.233,6.602 11.25,6.625Z" style="fill:rgb(255,215,0);"/>
                <path d="M11.909,6.667C11.842,6.672 11.808,6.665 11.799,6.637C11.847,6.635 11.884,6.641 11.909,6.667Z" style="fill:rgb(255,215,0);"/>
                <path d="M10.638,6.417C10.684,6.395 10.691,6.366 10.708,6.337C10.803,6.34 10.762,6.381 10.787,6.404C10.835,6.388 10.788,6.356 10.849,6.345C10.904,6.367 10.871,6.394 10.88,6.417C10.904,6.428 10.928,6.439 10.95,6.449L10.673,6.449C10.656,6.445 10.634,6.442 10.625,6.433C10.621,6.426 10.625,6.421 10.638,6.417Z" style="fill:rgb(255,215,0);"/>
                <path d="M11.439,6.385C11.305,6.411 11.162,6.411 11.02,6.417C11.023,6.395 11.049,6.37 11.095,6.374C11.209,6.383 11.331,6.351 11.439,6.385Z" style="fill:rgb(255,215,0);"/>
                <path d="M12.73,6.529C12.643,6.526 12.558,6.523 12.474,6.52C12.446,6.519 12.428,6.511 12.428,6.5C12.426,6.488 12.45,6.481 12.474,6.484C12.564,6.492 12.674,6.477 12.73,6.529Z" style="fill:rgb(255,215,0);"/>
                <path d="M11.299,6.449C11.183,6.46 11.067,6.484 10.95,6.449C11.067,6.466 11.183,6.407 11.299,6.449Z" style="fill:rgb(255,215,0);"/>
                <path d="M10.079,6.481C10.184,6.485 10.294,6.471 10.393,6.497C10.397,6.546 10.474,6.542 10.551,6.551C10.452,6.56 10.353,6.568 10.253,6.577C10.165,6.556 10.061,6.542 10.079,6.481Z" style="fill:rgb(255,215,0);"/>
                <path d="M10.219,6.449C10.182,6.472 10.128,6.463 10.079,6.464C9.995,6.43 9.868,6.467 9.772,6.428C9.89,6.39 10.017,6.383 10.149,6.385C10.162,6.391 10.173,6.396 10.184,6.402C10.219,6.414 10.259,6.425 10.219,6.449Z" style="fill:rgb(255,215,0);"/>
                <path d="M10.219,6.449C10.208,6.434 10.197,6.417 10.184,6.402C10.318,6.41 10.45,6.419 10.527,6.346C10.542,6.332 10.588,6.341 10.599,6.36C10.608,6.379 10.59,6.403 10.638,6.417L10.638,6.434C10.5,6.449 10.362,6.466 10.219,6.449Z" style="fill:rgb(255,215,0);"/>
            </g>
        </g>
    </g>
</svg>
